STARTFONT 2.1
COMMENT $XConsortium: luRS19.bdf,v 1.4 94/04/02 16:23:58 gildea Exp $
COMMENT  (c) Copyright Bigelow & Holmes 1986, 1985. Lucida is a registered
COMMENT  trademark of Bigelow & Holmes. See LEGAL NOTICE file for terms 
COMMENT  of the license. 
COMMENT  
COMMENT  Translation to ISO8859-2 by Cub Soft;  Petr.Kolar@vslib.cz
COMMENT  
FONT -B&H-Lucida-Medium-R-Normal-Sans-26-190-100-100-P-147-ISO8859-2
SIZE 19 100 100
FONTBOUNDINGBOX 43 29 -17 -5
STARTPROPERTIES 20
COMMENT Begin LogicalFontDescription
FONTNAME_REGISTRY ""
FOUNDRY "B&H"
FAMILY_NAME "Lucida"
WEIGHT_NAME "Medium"
SLANT "R"
SETWIDTH_NAME "Normal"
ADD_STYLE_NAME "Sans"
PIXEL_SIZE 26
POINT_SIZE 190
RESOLUTION_X 100
RESOLUTION_Y 100
SPACING "P"
AVERAGE_WIDTH "147"
CHARSET_REGISTRY "ISO8859"
CHARSET_ENCODING "2"
COMMENT END LogicalFontDescription
COPYRIGHT "Copyright Bigelow & Holmes 1986, 1985., Copyright 1996 Cub Soft"
FONT_ASCENT 24
FONT_DESCENT 6
DEFAULT_CHAR 0
FACE_NAME "Lucida Sans"
ENDPROPERTIES
CHARS 191
STARTCHAR space
ENCODING 32
SWIDTH 316 0
DWIDTH 8 0
BBX 1 1 0 0
BITMAP
00
ENDCHAR
STARTCHAR exclam
ENCODING 33
SWIDTH 205 0
DWIDTH 8 0
BBX 2 19 3 0
BITMAP
c0
c0
c0
c0
c0
c0
c0
c0
c0
c0
c0
c0
c0
c0
00
00
c0
c0
c0
ENDCHAR
STARTCHAR quotedbl
ENCODING 34
SWIDTH 373 0
DWIDTH 10 0
BBX 6 6 2 13
BITMAP
cc
cc
cc
cc
cc
cc
ENDCHAR
STARTCHAR numbersign
ENCODING 35
SWIDTH 633 0
DWIDTH 16 0
BBX 16 19 0 0
BITMAP
018c
0318
0318
0318
0338
7fff
7fff
0630
0630
0c60
0c60
fffe
fffe
1cc0
18c0
18c0
18c0
39c0
3180
ENDCHAR
STARTCHAR dollar
ENCODING 36
SWIDTH 633 0
DWIDTH 16 0
BBX 11 22 3 -2
BITMAP
0600
1fc0
3fe0
7620
6600
6600
6600
7600
3e00
1e00
0f00
0780
06c0
0660
0660
0660
0660
c6e0
ffc0
7f80
0600
0600
ENDCHAR
STARTCHAR percent
ENCODING 37
SWIDTH 669 0
DWIDTH 17 0
BBX 17 19 0 0
BITMAP
3c0380
7e0700
e70600
c30c00
c31c00
c33800
e73000
7e6000
3ce000
01de00
03bf00
037380
066180
0e6180
1c6180
186180
307380
703f00
e01e00
ENDCHAR
STARTCHAR ampersand
ENCODING 38
SWIDTH 697 0
DWIDTH 18 0
BBX 16 19 1 0
BITMAP
03c0
07e0
0e30
0e30
0e30
0e70
07e0
07c0
1f00
3b87
7187
e1c7
e0e6
e07e
f03c
f03c
7c38
3fec
0f8f
ENDCHAR
STARTCHAR apostrophe
ENCODING 39
SWIDTH 229 0
DWIDTH 6 0
BBX 3 7 1 12
BITMAP
e0
e0
e0
60
60
60
c0
ENDCHAR
STARTCHAR parenleft
ENCODING 40
SWIDTH 325 0
DWIDTH 8 0
BBX 6 23 2 -4
BITMAP
04
0c
18
38
30
70
70
60
e0
e0
e0
e0
e0
e0
e0
60
70
70
30
38
18
0c
04
ENDCHAR
STARTCHAR parenright
ENCODING 41
SWIDTH 325 0
DWIDTH 8 0
BBX 6 23 1 -4
BITMAP
80
c0
60
70
30
38
38
18
1c
1c
1c
1c
1c
1c
1c
18
38
38
30
70
60
c0
80
ENDCHAR
STARTCHAR asterisk
ENCODING 42
SWIDTH 482 0
DWIDTH 13 0
BBX 10 9 1 10
BITMAP
0c00
0c00
4c40
edc0
3300
0e00
1a00
7300
2180
ENDCHAR
STARTCHAR plus
ENCODING 43
SWIDTH 633 0
DWIDTH 16 0
BBX 16 16 0 0
BITMAP
0180
0180
0180
0180
0180
0180
0180
ffff
ffff
0180
0180
0180
0180
0180
0180
0180
ENDCHAR
STARTCHAR comma
ENCODING 44
SWIDTH 316 0
DWIDTH 8 0
BBX 3 9 3 -5
BITMAP
e0
e0
e0
e0
60
60
60
c0
80
ENDCHAR
STARTCHAR minus
ENCODING 45
SWIDTH 633 0
DWIDTH 16 0
BBX 15 2 1 7
BITMAP
fffe
fffe
ENDCHAR
STARTCHAR period
ENCODING 46
SWIDTH 316 0
DWIDTH 8 0
BBX 3 3 3 0
BITMAP
e0
e0
e0
ENDCHAR
STARTCHAR slash
ENCODING 47
SWIDTH 494 0
DWIDTH 13 0
BBX 13 23 0 -4
BITMAP
0018
0030
0030
0060
0060
00c0
00c0
0180
0180
0380
0300
0700
0600
0e00
0c00
0c00
1800
1800
3000
3000
6000
6000
c000
ENDCHAR
STARTCHAR zero
ENCODING 48
SWIDTH 633 0
DWIDTH 16 0
BBX 13 19 2 0
BITMAP
0f80
1fc0
38e0
7070
7070
e038
e038
e038
e038
e038
e038
e038
e038
e038
7070
7070
38e0
1fc0
0f80
ENDCHAR
STARTCHAR one
ENCODING 49
SWIDTH 633 0
DWIDTH 16 0
BBX 6 19 4 0
BITMAP
fc
fc
1c
1c
1c
1c
1c
1c
1c
1c
1c
1c
1c
1c
1c
1c
1c
1c
1c
ENDCHAR
STARTCHAR two
ENCODING 50
SWIDTH 633 0
DWIDTH 16 0
BBX 12 19 2 0
BITMAP
3f80
ffc0
e1e0
8070
0070
0070
0070
0060
00e0
01c0
0380
0f00
1c00
3800
3000
7000
e000
fff0
fff0
ENDCHAR
STARTCHAR three
ENCODING 51
SWIDTH 633 0
DWIDTH 16 0
BBX 11 19 3 0
BITMAP
7f00
ffc0
c1e0
00e0
00e0
00e0
00c0
0380
3e00
3f00
03c0
01e0
00e0
00e0
00e0
01e0
83c0
ff80
ff00
ENDCHAR
STARTCHAR four
ENCODING 52
SWIDTH 633 0
DWIDTH 16 0
BBX 14 19 1 0
BITMAP
00e0
00e0
01e0
03e0
0760
0660
0c60
1c60
1860
3060
7060
e060
fffc
fffc
0060
0060
0060
0060
0060
ENDCHAR
STARTCHAR five
ENCODING 53
SWIDTH 633 0
DWIDTH 16 0
BBX 10 19 3 0
BITMAP
ffc0
ffc0
c000
c000
c000
c000
c000
fc00
ff00
0780
03c0
01c0
01c0
01c0
01c0
03c0
8780
ff00
fc00
ENDCHAR
STARTCHAR six
ENCODING 54
SWIDTH 633 0
DWIDTH 16 0
BBX 13 19 2 0
BITMAP
07e0
1ff0
3c10
7800
7000
7000
e000
e7c0
efe0
f8f0
f078
e038
e038
e038
6038
7070
38f0
1fe0
0f80
ENDCHAR
STARTCHAR seven
ENCODING 55
SWIDTH 633 0
DWIDTH 16 0
BBX 12 19 3 0
BITMAP
fff0
fff0
0070
0060
00e0
01c0
0180
0380
0300
0700
0e00
0e00
1c00
1c00
3800
3800
3800
7000
7000
ENDCHAR
STARTCHAR eight
ENCODING 56
SWIDTH 633 0
DWIDTH 16 0
BBX 13 19 2 0
BITMAP
07c0
1fe0
1870
3030
3030
3030
3860
1ec0
0f80
1fc0
3bf0
70f0
e078
e038
e038
e038
7070
3fe0
1f80
ENDCHAR
STARTCHAR nine
ENCODING 57
SWIDTH 633 0
DWIDTH 16 0
BBX 13 19 2 0
BITMAP
0f80
3fc0
78e0
7070
e030
e038
e038
e038
f078
78f8
3fb8
1f38
0038
0070
0070
0060
41e0
7fc0
7f00
ENDCHAR
STARTCHAR colon
ENCODING 58
SWIDTH 316 0
DWIDTH 8 0
BBX 3 14 3 0
BITMAP
e0
e0
e0
00
00
00
00
00
00
00
00
e0
e0
e0
ENDCHAR
STARTCHAR semicolon
ENCODING 59
SWIDTH 316 0
DWIDTH 8 0
BBX 3 19 3 -5
BITMAP
e0
e0
e0
00
00
00
00
00
00
00
00
e0
e0
e0
60
60
60
c0
80
ENDCHAR
STARTCHAR less
ENCODING 60
SWIDTH 633 0
DWIDTH 16 0
BBX 15 16 1 0
BITMAP
0002
000e
003e
00f8
01e0
0780
1e00
f800
7800
1e00
0780
01e0
00f8
003e
000e
0002
ENDCHAR
STARTCHAR equal
ENCODING 61
SWIDTH 633 0
DWIDTH 16 0
BBX 15 7 1 4
BITMAP
fffe
fffe
0000
0000
0000
fffe
fffe
ENDCHAR
STARTCHAR greater
ENCODING 62
SWIDTH 633 0
DWIDTH 16 0
BBX 15 16 1 0
BITMAP
8000
e000
f800
3e00
0f00
03c0
00f0
003c
003e
00f0
03c0
0f00
3e00
f800
e000
8000
ENDCHAR
STARTCHAR question
ENCODING 63
SWIDTH 422 0
DWIDTH 11 0
BBX 10 19 0 0
BITMAP
7e00
ff80
83c0
01c0
01c0
01c0
0380
0380
0700
0e00
0c00
1c00
1c00
1c00
0000
0000
1c00
1c00
1c00
ENDCHAR
STARTCHAR at
ENCODING 64
SWIDTH 858 0
DWIDTH 22 0
BBX 20 19 3 0
BITMAP
00fe00
03ff80
0783c0
1c00e0
187e60
30fc30
618430
630c30
c20c30
c61830
c63870
c63860
c64ce0
e7cfc0
630700
700000
3c0800
1ff800
07e000
ENDCHAR
STARTCHAR A
ENCODING 65
SWIDTH 690 0
DWIDTH 18 0
BBX 17 19 0 0
BITMAP
01c000
01e000
03e000
03e000
037000
067000
067000
063800
0c3800
0c3c00
1c1c00
181c00
1ffe00
3ffe00
300e00
700700
600700
600380
c00380
ENDCHAR
STARTCHAR B
ENCODING 66
SWIDTH 575 0
DWIDTH 15 0
BBX 11 19 3 0
BITMAP
fe00
ff80
e3c0
e1c0
e1c0
e1c0
e380
e380
fe00
fe00
e380
e1c0
e0e0
e0e0
e0e0
e0e0
e1c0
ffc0
ff00
ENDCHAR
STARTCHAR C
ENCODING 67
SWIDTH 692 0
DWIDTH 18 0
BBX 15 19 1 0
BITMAP
03fc
0ffe
3e06
3800
7000
7000
e000
e000
e000
e000
e000
e000
e000
7000
7000
3802
3e0e
1ffe
03f8
ENDCHAR
STARTCHAR D
ENCODING 68
SWIDTH 749 0
DWIDTH 19 0
BBX 16 19 2 0
BITMAP
ffc0
fff0
e07c
e01c
e00e
e00e
e007
e007
e007
e007
e007
e007
e007
e00e
e00e
e01c
e078
fff0
ffc0
ENDCHAR
STARTCHAR E
ENCODING 69
SWIDTH 542 0
DWIDTH 14 0
BBX 11 19 2 0
BITMAP
ffc0
ffc0
e000
e000
e000
e000
e000
e000
ff80
ff80
e000
e000
e000
e000
e000
e000
e000
ffe0
ffe0
ENDCHAR
STARTCHAR F
ENCODING 70
SWIDTH 536 0
DWIDTH 14 0
BBX 11 19 2 0
BITMAP
ffe0
ffe0
e000
e000
e000
e000
e000
e000
ffc0
ffc0
e000
e000
e000
e000
e000
e000
e000
e000
e000
ENDCHAR
STARTCHAR G
ENCODING 71
SWIDTH 723 0
DWIDTH 19 0
BBX 15 19 1 0
BITMAP
03fc
0ffe
3e06
3800
7000
7000
e000
e000
e000
e000
e00e
e00e
e00e
700e
700e
380e
3e0e
1ffe
07f8
ENDCHAR
STARTCHAR H
ENCODING 72
SWIDTH 735 0
DWIDTH 19 0
BBX 14 19 3 0
BITMAP
e01c
e01c
e01c
e01c
e01c
e01c
e01c
e01c
fffc
fffc
e01c
e01c
e01c
e01c
e01c
e01c
e01c
e01c
e01c
ENDCHAR
STARTCHAR I
ENCODING 73
SWIDTH 288 0
DWIDTH 7 0
BBX 3 19 2 0
BITMAP
e0
e0
e0
e0
e0
e0
e0
e0
e0
e0
e0
e0
e0
e0
e0
e0
e0
e0
e0
ENDCHAR
STARTCHAR J
ENCODING 74
SWIDTH 311 0
DWIDTH 8 0
BBX 8 23 -1 -4
BITMAP
07
07
07
07
07
07
07
07
07
07
07
07
07
07
07
07
07
07
07
07
8e
fc
f8
ENDCHAR
STARTCHAR K
ENCODING 75
SWIDTH 653 0
DWIDTH 17 0
BBX 14 19 2 0
BITMAP
e038
e070
e0e0
e0c0
e180
e380
e700
ee00
ec00
fe00
ee00
ef00
e780
e3c0
e1e0
e0e0
e0f0
e078
e03c
ENDCHAR
STARTCHAR L
ENCODING 76
SWIDTH 533 0
DWIDTH 14 0
BBX 11 19 2 0
BITMAP
e000
e000
e000
e000
e000
e000
e000
e000
e000
e000
e000
e000
e000
e000
e000
e000
e000
ffe0
ffe0
ENDCHAR
STARTCHAR M
ENCODING 77
SWIDTH 861 0
DWIDTH 22 0
BBX 18 19 2 0
BITMAP
f003c0
f003c0
f807c0
f807c0
f807c0
dc0dc0
dc0dc0
de0dc0
ce19c0
ce19c0
cf39c0
c731c0
c731c0
c3e1c0
c3e1c0
c3e1c0
c1c1c0
c1c1c0
c001c0
ENDCHAR
STARTCHAR N
ENCODING 78
SWIDTH 741 0
DWIDTH 19 0
BBX 14 19 3 0
BITMAP
e00c
f00c
f00c
f80c
fc0c
dc0c
de0c
cf0c
c70c
c78c
c38c
c1cc
c1ec
c0ec
c0fc
c07c
c03c
c03c
c01c
ENDCHAR
STARTCHAR O
ENCODING 79
SWIDTH 777 0
DWIDTH 20 0
BBX 18 19 1 0
BITMAP
03f000
0ffc00
1e1e00
380700
700380
700380
e001c0
e001c0
e001c0
e001c0
e001c0
e001c0
e001c0
700380
700380
380700
1c0e00
0ffc00
03f000
ENDCHAR
STARTCHAR P
ENCODING 80
SWIDTH 553 0
DWIDTH 14 0
BBX 11 19 3 0
BITMAP
ff80
ffc0
e1e0
e0e0
e0e0
e0e0
e0e0
e1e0
e3c0
ff80
fe00
e000
e000
e000
e000
e000
e000
e000
e000
ENDCHAR
STARTCHAR Q
ENCODING 81
SWIDTH 777 0
DWIDTH 20 0
BBX 20 23 1 -4
BITMAP
03f000
0ffc00
1e1e00
380700
700380
700380
e001c0
e001c0
e001c0
e001c0
e001c0
e001c0
e001c0
700380
700380
380700
1c0f00
0ffc00
03fc00
001f00
0007f0
0001e0
000060
ENDCHAR
STARTCHAR R
ENCODING 82
SWIDTH 633 0
DWIDTH 16 0
BBX 13 19 3 0
BITMAP
ff00
ffc0
e1e0
e0e0
e0e0
e0e0
e0e0
e1c0
e380
ff00
ff00
e700
e380
e3c0
e1c0
e1e0
e0f0
e070
e078
ENDCHAR
STARTCHAR S
ENCODING 83
SWIDTH 539 0
DWIDTH 14 0
BBX 11 19 1 0
BITMAP
1f80
7fc0
70c0
e000
e000
e000
f000
7c00
3e00
1f80
07c0
03c0
01e0
00e0
00e0
00e0
c1c0
ff80
7f00
ENDCHAR
STARTCHAR T
ENCODING 84
SWIDTH 633 0
DWIDTH 16 0
BBX 17 19 0 0
BITMAP
ffff80
ffff80
01c000
01c000
01c000
01c000
01c000
01c000
01c000
01c000
01c000
01c000
01c000
01c000
01c000
01c000
01c000
01c000
01c000
ENDCHAR
STARTCHAR U
ENCODING 85
SWIDTH 693 0
DWIDTH 18 0
BBX 13 19 3 0
BITMAP
e018
e018
e018
e018
e018
e018
e018
e018
e018
e018
e018
e018
e018
e018
e018
7038
7870
3fe0
1fc0
ENDCHAR
STARTCHAR V
ENCODING 86
SWIDTH 654 0
DWIDTH 17 0
BBX 16 19 1 0
BITMAP
e003
e006
7006
7006
700c
380c
380c
3c18
1c18
1c18
1e30
0e30
0e70
0760
0760
07c0
03c0
03c0
0380
ENDCHAR
STARTCHAR W
ENCODING 87
SWIDTH 855 0
DWIDTH 22 0
BBX 22 19 0 0
BITMAP
e0380c
e0781c
e07818
707818
707c18
707c30
70dc30
38dc30
38de30
38ce60
398e60
1d8e60
1d8ee0
1d87c0
1f87c0
0f07c0
0f0780
0f0380
0f0380
ENDCHAR
STARTCHAR X
ENCODING 88
SWIDTH 626 0
DWIDTH 16 0
BBX 15 19 0 0
BITMAP
f00e
701c
3818
3c38
1c30
1e60
0fe0
07c0
0780
03c0
07c0
07e0
0ee0
0cf0
1878
3838
303c
601c
e01e
ENDCHAR
STARTCHAR Y
ENCODING 89
SWIDTH 623 0
DWIDTH 16 0
BBX 16 19 0 0
BITMAP
e007
7006
780c
381c
3c18
1c30
1e30
0f60
07e0
07c0
0380
0380
0380
0380
0380
0380
0380
0380
0380
ENDCHAR
STARTCHAR Z
ENCODING 90
SWIDTH 605 0
DWIDTH 16 0
BBX 13 19 1 0
BITMAP
7ff8
7ff8
0078
0070
00f0
01e0
01c0
03c0
0780
0700
0f00
1e00
1c00
3c00
7800
7000
f000
fff8
fff8
ENDCHAR
STARTCHAR bracketleft
ENCODING 91
SWIDTH 325 0
DWIDTH 8 0
BBX 5 23 3 -4
BITMAP
f8
f8
c0
c0
c0
c0
c0
c0
c0
c0
c0
c0
c0
c0
c0
c0
c0
c0
c0
c0
c0
f8
f8
ENDCHAR
STARTCHAR backslash
ENCODING 92
SWIDTH 494 0
DWIDTH 13 0
BBX 13 23 0 -4
BITMAP
c000
6000
6000
3000
3000
1800
1800
0c00
0c00
0e00
0600
0700
0300
0380
0180
0180
00c0
00c0
0060
0060
0030
0030
0018
ENDCHAR
STARTCHAR bracketright
ENCODING 93
SWIDTH 325 0
DWIDTH 8 0
BBX 5 23 1 -4
BITMAP
f8
f8
18
18
18
18
18
18
18
18
18
18
18
18
18
18
18
18
18
18
18
f8
f8
ENDCHAR
STARTCHAR asciicircum
ENCODING 94
SWIDTH 633 0
DWIDTH 16 0
BBX 15 16 1 3
BITMAP
0100
0100
0380
0380
07c0
06c0
0ee0
0c60
1c70
1830
1830
3018
3018
600c
600c
c006
ENDCHAR
STARTCHAR underscore
ENCODING 95
SWIDTH 500 0
DWIDTH 13 0
BBX 11 2 1 -2
BITMAP
ffe0
ffe0
ENDCHAR
STARTCHAR grave
ENCODING 96
SWIDTH 614 0
DWIDTH 16 0
BBX 6 4 4 15
BITMAP
e0
70
38
1c
ENDCHAR
STARTCHAR a
ENCODING 97
SWIDTH 552 0
DWIDTH 14 0
BBX 12 14 2 0
BITMAP
1f80
7fc0
41c0
01c0
01c0
01c0
1fc0
7fc0
f1c0
e1c0
e1c0
e3c0
7ef0
3c70
ENDCHAR
STARTCHAR b
ENCODING 98
SWIDTH 630 0
DWIDTH 16 0
BBX 12 19 3 0
BITMAP
e000
e000
e000
e000
e000
e780
efe0
f8e0
f0f0
e070
e070
e070
e070
e070
e070
e0e0
f1e0
ffc0
cf80
ENDCHAR
STARTCHAR c
ENCODING 99
SWIDTH 518 0
DWIDTH 13 0
BBX 11 14 1 0
BITMAP
0fe0
3fe0
7820
7000
e000
e000
e000
e000
e000
e000
7000
7820
3fe0
0fc0
ENDCHAR
STARTCHAR d
ENCODING 100
SWIDTH 630 0
DWIDTH 16 0
BBX 12 19 2 0
BITMAP
0070
0070
0070
0070
0070
1e70
3ff0
78f0
7070
e070
e070
e070
e070
e070
e070
f0f0
71f0
7f70
1e70
ENDCHAR
STARTCHAR e
ENCODING 101
SWIDTH 557 0
DWIDTH 14 0
BBX 12 14 1 0
BITMAP
0f80
3fc0
70e0
7060
e070
e070
fff0
fff0
e000
e000
7000
7c10
1ff0
0fe0
ENDCHAR
STARTCHAR f
ENCODING 102
SWIDTH 367 0
DWIDTH 10 0
BBX 10 20 1 0
BITMAP
0fc0
1fc0
3840
3800
3800
3800
ff00
ff00
3800
3800
3800
3800
3800
3800
3800
3800
3800
3800
3800
3800
ENDCHAR
STARTCHAR g
ENCODING 103
SWIDTH 623 0
DWIDTH 16 0
BBX 12 19 2 -5
BITMAP
1e70
3ff0
78f0
7070
e070
e070
e070
e070
e070
e070
f0f0
71f0
3f70
1e70
0070
0060
40e0
7fc0
3f80
ENDCHAR
STARTCHAR h
ENCODING 104
SWIDTH 620 0
DWIDTH 16 0
BBX 11 19 3 0
BITMAP
e000
e000
e000
e000
e000
e780
efc0
f8e0
f0e0
e0e0
e0e0
e0e0
e0e0
e0e0
e0e0
e0e0
e0e0
e0e0
e0e0
ENDCHAR
STARTCHAR i
ENCODING 105
SWIDTH 289 0
DWIDTH 8 0
BBX 3 19 2 0
BITMAP
e0
e0
e0
00
00
e0
e0
e0
e0
e0
e0
e0
e0
e0
e0
e0
e0
e0
e0
ENDCHAR
STARTCHAR j
ENCODING 106
SWIDTH 304 0
DWIDTH 8 0
BBX 8 24 -1 -5
BITMAP
07
07
07
00
00
07
07
07
07
07
07
07
07
07
07
07
07
07
07
07
07
8e
fe
f8
ENDCHAR
STARTCHAR k
ENCODING 107
SWIDTH 585 0
DWIDTH 15 0
BBX 13 19 2 0
BITMAP
e000
e000
e000
e000
e000
e070
e0c0
e1c0
e380
e700
ee00
fc00
fe00
ef00
e780
e3c0
e1e0
e0f0
e078
ENDCHAR
STARTCHAR l
ENCODING 108
SWIDTH 289 0
DWIDTH 8 0
BBX 3 19 2 0
BITMAP
e0
e0
e0
e0
e0
e0
e0
e0
e0
e0
e0
e0
e0
e0
e0
e0
e0
e0
e0
ENDCHAR
STARTCHAR m
ENCODING 109
SWIDTH 934 0
DWIDTH 24 0
BBX 19 14 3 0
BITMAP
e7c780
efcfc0
f8f9e0
f0f0e0
e0e0e0
e0e0e0
e0e0e0
e0e0e0
e0e0e0
e0e0e0
e0e0e0
e0e0e0
e0e0e0
e0e0e0
ENDCHAR
STARTCHAR n
ENCODING 110
SWIDTH 620 0
DWIDTH 16 0
BBX 11 14 3 0
BITMAP
e780
efc0
f8e0
f0e0
e0e0
e0e0
e0e0
e0e0
e0e0
e0e0
e0e0
e0e0
e0e0
e0e0
ENDCHAR
STARTCHAR o
ENCODING 111
SWIDTH 614 0
DWIDTH 16 0
BBX 13 14 1 0
BITMAP
0f80
3fe0
78f0
7070
e038
e038
e038
e038
e038
e038
7070
78f0
3fe0
0f80
ENDCHAR
STARTCHAR p
ENCODING 112
SWIDTH 630 0
DWIDTH 16 0
BBX 12 19 3 -5
BITMAP
e780
efe0
f8e0
f0f0
e070
e070
e070
e070
e070
e070
e0e0
f1e0
ffc0
e780
e000
e000
e000
e000
e000
ENDCHAR
STARTCHAR q
ENCODING 113
SWIDTH 630 0
DWIDTH 16 0
BBX 12 19 2 -5
BITMAP
1e70
3ff0
78f0
7070
e070
e070
e070
e070
e070
e070
f0f0
71f0
7f70
1e70
0070
0070
0070
0070
0070
ENDCHAR
STARTCHAR r
ENCODING 114
SWIDTH 409 0
DWIDTH 11 0
BBX 8 14 2 0
BITMAP
e7
ef
f8
f0
e0
e0
e0
e0
e0
e0
e0
e0
e0
e0
ENDCHAR
STARTCHAR s
ENCODING 115
SWIDTH 510 0
DWIDTH 13 0
BBX 9 14 2 0
BITMAP
3f00
7f00
f100
e000
e000
f800
7e00
3f00
0780
0380
0380
8780
ff00
7e00
ENDCHAR
STARTCHAR t
ENCODING 116
SWIDTH 374 0
DWIDTH 10 0
BBX 9 17 0 0
BITMAP
3800
3800
3800
ff80
ff80
3800
3800
3800
3800
3800
3800
3800
3800
3800
3c00
1f80
0f80
ENDCHAR
STARTCHAR u
ENCODING 117
SWIDTH 620 0
DWIDTH 16 0
BBX 11 14 2 0
BITMAP
e0e0
e0e0
e0e0
e0e0
e0e0
e0e0
e0e0
e0e0
e0e0
e0e0
e1e0
e3e0
7ee0
3ce0
ENDCHAR
STARTCHAR v
ENCODING 118
SWIDTH 572 0
DWIDTH 13 0
BBX 13 14 0 0
BITMAP
e018
e030
7030
7070
7060
3860
38c0
3cc0
1dc0
1d80
1f80
0f00
0f00
0700
ENDCHAR
STARTCHAR w
ENCODING 119
SWIDTH 840 0
DWIDTH 20 0
BBX 20 14 0 0
BITMAP
c06030
60f060
60f060
60f060
71f0c0
3198c0
3198c0
319980
1b1d80
1b0d80
1b0f00
1e0f00
0e0f00
0e0600
ENDCHAR
STARTCHAR x
ENCODING 120
SWIDTH 613 0
DWIDTH 16 0
BBX 14 14 1 0
BITMAP
e01c
3030
3870
1c60
0cc0
07c0
0780
0780
0f80
1cc0
1860
3070
7038
e01c
ENDCHAR
STARTCHAR y
ENCODING 121
SWIDTH 568 0
DWIDTH 14 0
BBX 13 19 0 -5
BITMAP
e018
f030
7030
7070
7860
3860
38c0
1cc0
1dc0
1d80
0f80
0f00
0f00
0700
0600
0600
0e00
0c00
1c00
ENDCHAR
STARTCHAR z
ENCODING 122
SWIDTH 573 0
DWIDTH 15 0
BBX 12 14 1 0
BITMAP
fff0
fff0
0060
00c0
0180
0380
0700
0e00
1c00
3800
3000
6000
fff0
fff0
ENDCHAR
STARTCHAR braceleft
ENCODING 123
SWIDTH 325 0
DWIDTH 8 0
BBX 7 23 0 -4
BITMAP
0e
1e
38
30
30
38
18
18
18
18
10
e0
f0
18
18
18
18
38
30
30
38
1e
06
ENDCHAR
STARTCHAR bar
ENCODING 124
SWIDTH 265 0
DWIDTH 7 0
BBX 2 23 2 -4
BITMAP
c0
c0
c0
c0
c0
c0
c0
c0
c0
c0
c0
c0
c0
c0
c0
c0
c0
c0
c0
c0
c0
c0
c0
ENDCHAR
STARTCHAR braceright
ENCODING 125
SWIDTH 325 0
DWIDTH 8 0
BBX 7 23 1 -4
BITMAP
c0
f0
38
18
18
38
30
30
30
30
1e
0e
10
30
30
30
30
38
18
18
38
f0
e0
ENDCHAR
STARTCHAR asciitilde
ENCODING 126
SWIDTH 633 0
DWIDTH 16 0
BBX 15 6 1 5
BITMAP
3c06
7e06
6786
c3cc
c0fc
c078
ENDCHAR
STARTCHAR nobreakspace
ENCODING 160
SWIDTH 316 0
DWIDTH 8 0
BBX 1 1 0 0
BITMAP
00
ENDCHAR
STARTCHAR Aogonek
ENCODING 161
SWIDTH 690 0
DWIDTH 18 0
BBX 17 23 0 -4
BITMAP
01c000
01e000
03e000
03e000
037000
067000
067000
063800
0c3800
0c3c00
1c1c00
181c00
1ffe00
3ffe00
300e00
700700
600700
600380
c00380
00c000
018000
018000
00e000
ENDCHAR
STARTCHAR breve
ENCODING 162
SWIDTH 614 0
DWIDTH 16 0
BBX 8 4 4 15
BITMAP
c3
c3
7e
3c
ENDCHAR
STARTCHAR Lstroke
ENCODING 163
SWIDTH 533 0
DWIDTH 14 0
BBX 14 19 0 0
BITMAP
1c00
1c00
1c00
1c00
1c00
1c00
1c80
1f80
1f00
3c00
fc00
dc00
9c00
1c00
1c00
1c00
1c00
1ffc
1ffc
ENDCHAR
STARTCHAR currency
ENCODING 164
SWIDTH 633 0
DWIDTH 16 0
BBX 15 17 1 1
BITMAP
4004
e00e
77dc
3ff8
1c70
1830
3018
3018
3018
3018
3018
1830
1c70
3ff8
77dc
e00e
4004
ENDCHAR
STARTCHAR Lcaron
ENCODING 165
SWIDTH 533 0
DWIDTH 14 0
BBX 11 21 2 0
BITMAP
0e00
0e00
ee00
e600
e600
e600
ec00
e000
e000
e000
e000
e000
e000
e000
e000
e000
e000
e000
e000
ffe0
ffe0
ENDCHAR
STARTCHAR Sacute
ENCODING 166
SWIDTH 539 0
DWIDTH 14 0
BBX 11 24 1 0
BITMAP
01c0
0380
0700
0e00
0000
1f80
7fc0
70c0
e000
e000
e000
f000
7c00
3e00
1f80
07c0
03c0
01e0
00e0
00e0
00e0
c1c0
ff80
7f00
ENDCHAR
STARTCHAR section
ENCODING 167
SWIDTH 633 0
DWIDTH 16 0
BBX 11 24 3 -5
BITMAP
1fc0
7fc0
6040
c000
c000
e000
f800
7e00
7f80
cfc0
c1e0
c0e0
e060
f060
7e40
3fc0
0fc0
03e0
00e0
0060
0060
c0e0
ffc0
7f00
ENDCHAR
STARTCHAR diaeresis
ENCODING 168
SWIDTH 614 0
DWIDTH 16 0
BBX 7 2 4 17
BITMAP
c6
c6
ENDCHAR
STARTCHAR Scaron
ENCODING 169
SWIDTH 539 0
DWIDTH 14 0
BBX 11 24 1 0
BITMAP
30c0
1980
0f00
0f00
0000
1f80
7fc0
70c0
e000
e000
e000
f000
7c00
3e00
1f80
07c0
03c0
01e0
00e0
00e0
00e0
c1c0
ff80
7f00
ENDCHAR
STARTCHAR Scedilla
ENCODING 170
SWIDTH 539 0
DWIDTH 14 0
BBX 11 25 1 -6
BITMAP
1f80
7fc0
70c0
e000
e000
e000
f000
7c00
3e00
1f80
07c0
03c0
01e0
00e0
00e0
00e0
c1c0
ff80
7f00
0600
0400
0700
0300
0300
0e00
ENDCHAR
STARTCHAR Tcaron
ENCODING 171
SWIDTH 633 0
DWIDTH 16 0
BBX 17 24 0 0
BITMAP
061800
033000
01e000
01e000
000000
ffff80
ffff80
01c000
01c000
01c000
01c000
01c000
01c000
01c000
01c000
01c000
01c000
01c000
01c000
01c000
01c000
01c000
01c000
01c000
ENDCHAR
STARTCHAR Zacute
ENCODING 172
SWIDTH 605 0
DWIDTH 16 0
BBX 13 24 1 0
BITMAP
00e0
01c0
0380
0700
0000
7ff8
7ff8
0078
0070
00f0
01e0
01c0
03c0
0780
0700
0f00
1e00
1c00
3c00
7800
7000
f000
fff8
fff8
ENDCHAR
STARTCHAR hyphen
ENCODING 173
SWIDTH 325 0
DWIDTH 8 0
BBX 6 2 1 7
BITMAP
fc
fc
ENDCHAR
STARTCHAR Zcaron
ENCODING 174
SWIDTH 605 0
DWIDTH 16 0
BBX 13 24 1 0
BITMAP
1860
0cc0
0780
0780
0000
7ff8
7ff8
0078
0070
00f0
01e0
01c0
03c0
0780
0700
0f00
1e00
1c00
3c00
7800
7000
f000
fff8
fff8
ENDCHAR
STARTCHAR Zabovedot
ENCODING 175
SWIDTH 605 0
DWIDTH 16 0
BBX 13 23 1 0
BITMAP
0300
0300
0300
0000
7ff8
7ff8
0078
0070
00f0
01e0
01c0
03c0
0780
0700
0f00
1e00
1c00
3c00
7800
7000
f000
fff8
fff8
ENDCHAR
STARTCHAR degree
ENCODING 176
SWIDTH 277 0
DWIDTH 7 0
BBX 4 5 2 14
BITMAP
60
90
90
90
60
ENDCHAR
STARTCHAR aogonek
ENCODING 177
SWIDTH 552 0
DWIDTH 14 0
BBX 12 18 2 -4
BITMAP
1f80
7fc0
41c0
01c0
01c0
01c0
1fc0
7fc0
f1c0
e1c0
e1c0
e3c0
7ef0
3c70
0600
0c00
0c00
0700
ENDCHAR
STARTCHAR ogonek
ENCODING 178
SWIDTH 614 0
DWIDTH 16 0
BBX 4 4 6 -4
BITMAP
60
c0
c0
70
ENDCHAR
STARTCHAR lstroke
ENCODING 179
SWIDTH 289 0
DWIDTH 8 0
BBX 9 19 0 0
BITMAP
1c00
1c00
1c00
1c00
1c00
1c80
1f80
1f00
1c00
7c00
dc00
9c00
1c00
1c00
1c00
1c00
1c00
1c00
1c00
ENDCHAR
STARTCHAR acute
ENCODING 180
SWIDTH 614 0
DWIDTH 16 0
BBX 6 4 6 15
BITMAP
1c
38
70
e0
ENDCHAR
STARTCHAR lcaron
ENCODING 181
SWIDTH 454 0
DWIDTH 12 0
BBX 7 21 2 0
BITMAP
0e
0e
ee
e6
e6
e6
ec
e0
e0
e0
e0
e0
e0
e0
e0
e0
e0
e0
e0
e0
e0
ENDCHAR
STARTCHAR sacute
ENCODING 182
SWIDTH 510 0
DWIDTH 13 0
BBX 9 19 2 0
BITMAP
0700
0e00
1c00
3800
0000
3f00
7f00
f100
e000
e000
f800
7e00
3f00
0780
0380
0380
8780
ff00
7e00
ENDCHAR
STARTCHAR caron
ENCODING 183
SWIDTH 614 0
DWIDTH 16 0
BBX 8 4 4 15
BITMAP
c3
66
3c
3c
ENDCHAR
STARTCHAR cedilla
ENCODING 184
SWIDTH 614 0
DWIDTH 16 0
BBX 4 6 6 -5
BITMAP
60
40
70
30
30
e0
ENDCHAR
STARTCHAR scaron
ENCODING 185
SWIDTH 510 0
DWIDTH 13 0
BBX 9 19 2 0
BITMAP
c300
6600
3c00
3c00
0000
3f00
7f00
f100
e000
e000
f800
7e00
3f00
0780
0380
0380
8780
ff00
7e00
ENDCHAR
STARTCHAR scedilla
ENCODING 186
SWIDTH 510 0
DWIDTH 13 0
BBX 9 20 2 -6
BITMAP
3f00
7f00
f100
e000
e000
f800
7e00
3f00
0780
0380
0380
8780
ff00
7e00
0c00
0800
0e00
0600
0600
1c00
ENDCHAR
STARTCHAR tcaron
ENCODING 187
SWIDTH 374 0
DWIDTH 10 0
BBX 9 22 0 0
BITMAP
0380
0380
0380
0180
0180
3980
3b00
3800
ff80
ff80
3800
3800
3800
3800
3800
3800
3800
3800
3800
3c00
1f80
0f80
ENDCHAR
STARTCHAR zacute
ENCODING 188
SWIDTH 573 0
DWIDTH 15 0
BBX 12 19 1 0
BITMAP
01c0
0380
0700
0e00
0000
fff0
fff0
0060
00c0
0180
0380
0700
0e00
1c00
3800
3000
6000
fff0
fff0
ENDCHAR
STARTCHAR doubleacute
ENCODING 189
SWIDTH 614 0
DWIDTH 16 0
BBX 8 4 5 15
BITMAP
1b
36
6c
d8
ENDCHAR
STARTCHAR zcaron
ENCODING 190
SWIDTH 573 0
DWIDTH 15 0
BBX 12 19 1 0
BITMAP
30c0
1980
0f00
0f00
0000
fff0
fff0
0060
00c0
0180
0380
0700
0e00
1c00
3800
3000
6000
fff0
fff0
ENDCHAR
STARTCHAR zabovedot
ENCODING 191
SWIDTH 573 0
DWIDTH 15 0
BBX 12 18 1 0
BITMAP
0600
0600
0600
0000
fff0
fff0
0060
00c0
0180
0380
0700
0e00
1c00
3800
3000
6000
fff0
fff0
ENDCHAR
STARTCHAR Racute
ENCODING 192
SWIDTH 633 0
DWIDTH 16 0
BBX 13 24 3 0
BITMAP
01c0
0380
0700
0e00
0000
ff00
ffc0
e1e0
e0e0
e0e0
e0e0
e0e0
e1c0
e380
ff00
ff00
e700
e380
e3c0
e1c0
e1e0
e0f0
e070
e078
ENDCHAR
STARTCHAR Aacute
ENCODING 193
SWIDTH 690 0
DWIDTH 18 0
BBX 17 24 0 0
BITMAP
007000
00e000
01c000
038000
000000
01c000
01e000
03e000
03e000
037000
067000
067000
063800
0c3800
0c3c00
1c1c00
181c00
1ffe00
3ffe00
300e00
700700
600700
600380
c00380
ENDCHAR
STARTCHAR Acircumflex
ENCODING 194
SWIDTH 690 0
DWIDTH 18 0
BBX 17 24 0 0
BITMAP
01e000
01e000
033000
061800
000000
01c000
01e000
03e000
03e000
037000
067000
067000
063800
0c3800
0c3c00
1c1c00
181c00
1ffe00
3ffe00
300e00
700700
600700
600380
c00380
ENDCHAR
STARTCHAR Abreve
ENCODING 195
SWIDTH 690 0
DWIDTH 18 0
BBX 17 24 0 0
BITMAP
061800
061800
03f000
01e000
000000
01c000
01e000
03e000
03e000
037000
067000
067000
063800
0c3800
0c3c00
1c1c00
181c00
1ffe00
3ffe00
300e00
700700
600700
600380
c00380
ENDCHAR
STARTCHAR Adiaeresis
ENCODING 196
SWIDTH 690 0
DWIDTH 18 0
BBX 17 22 0 0
BITMAP
063000
063000
000000
01c000
01e000
03e000
03e000
037000
067000
067000
063800
0c3800
0c3c00
1c1c00
181c00
1ffe00
3ffe00
300e00
700700
600700
600380
c00380
ENDCHAR
STARTCHAR Lacute
ENCODING 197
SWIDTH 533 0
DWIDTH 14 0
BBX 11 24 2 0
BITMAP
1c00
3800
7000
e000
0000
e000
e000
e000
e000
e000
e000
e000
e000
e000
e000
e000
e000
e000
e000
e000
e000
e000
ffe0
ffe0
ENDCHAR
STARTCHAR Cacute
ENCODING 198
SWIDTH 692 0
DWIDTH 18 0
BBX 15 24 1 0
BITMAP
0038
0070
00e0
01c0
0000
03fc
0ffe
3e06
3800
7000
7000
e000
e000
e000
e000
e000
e000
e000
7000
7000
3802
3e0e
1ffe
03f8
ENDCHAR
STARTCHAR Ccedilla
ENCODING 199
SWIDTH 692 0
DWIDTH 18 0
BBX 15 24 1 -5
BITMAP
03fc
0ffe
3e06
3800
7000
7000
e000
e000
e000
e000
e000
e000
e000
7000
7000
3802
3e0e
1ffe
03f8
0100
01c0
00c0
00c0
0380
ENDCHAR
STARTCHAR Ccaron
ENCODING 200
SWIDTH 692 0
DWIDTH 18 0
BBX 15 24 1 0
BITMAP
0618
0330
01e0
01e0
0000
03fc
0ffe
3e06
3800
7000
7000
e000
e000
e000
e000
e000
e000
e000
7000
7000
3802
3e0e
1ffe
03f8
ENDCHAR
STARTCHAR Eacute
ENCODING 201
SWIDTH 542 0
DWIDTH 14 0
BBX 11 24 2 0
BITMAP
0700
0e00
1c00
3800
0000
ffc0
ffc0
e000
e000
e000
e000
e000
e000
ff80
ff80
e000
e000
e000
e000
e000
e000
e000
ffe0
ffe0
ENDCHAR
STARTCHAR Eogonek
ENCODING 202
SWIDTH 542 0
DWIDTH 14 0
BBX 11 23 2 -4
BITMAP
ffc0
ffc0
e000
e000
e000
e000
e000
e000
ff80
ff80
e000
e000
e000
e000
e000
e000
e000
ffe0
ffe0
0600
0c00
0c00
0700
ENDCHAR
STARTCHAR Ediaeresis
ENCODING 203
SWIDTH 542 0
DWIDTH 14 0
BBX 11 22 2 0
BITMAP
6300
6300
0000
ffc0
ffc0
e000
e000
e000
e000
e000
e000
ff80
ff80
e000
e000
e000
e000
e000
e000
e000
ffe0
ffe0
ENDCHAR
STARTCHAR Ecaron
ENCODING 204
SWIDTH 542 0
DWIDTH 14 0
BBX 11 24 2 0
BITMAP
6180
3300
1e00
1e00
0000
ffc0
ffc0
e000
e000
e000
e000
e000
e000
ff80
ff80
e000
e000
e000
e000
e000
e000
e000
ffe0
ffe0
ENDCHAR
STARTCHAR Iacute
ENCODING 205
SWIDTH 288 0
DWIDTH 7 0
BBX 6 24 3 0
BITMAP
1c
38
70
e0
00
70
70
70
70
70
70
70
70
70
70
70
70
70
70
70
70
70
70
70
ENDCHAR
STARTCHAR Icircumflex
ENCODING 206
SWIDTH 288 0
DWIDTH 7 0
BBX 8 24 4 0
BITMAP
3c
3c
66
c3
00
38
38
38
38
38
38
38
38
38
38
38
38
38
38
38
38
38
38
38
ENDCHAR
STARTCHAR Dcaron
ENCODING 207
SWIDTH 749 0
DWIDTH 19 0
BBX 16 24 2 0
BITMAP
1860
0cc0
0780
0780
0000
ffc0
fff0
e07c
e01c
e00e
e00e
e007
e007
e007
e007
e007
e007
e007
e00e
e00e
e01c
e078
fff0
ffc0
ENDCHAR
STARTCHAR Dstroke
ENCODING 208
SWIDTH 749 0
DWIDTH 19 0
BBX 19 19 0 0
BITMAP
1ff800
1ffe00
1c0f80
1c0380
1c01c0
1c01c0
1c00e0
1c00e0
ffc0e0
ffc0e0
1c00e0
1c00e0
1c00e0
1c01c0
1c01c0
1c0380
1c0f00
1ffe00
1ff800
ENDCHAR
STARTCHAR Nacute
ENCODING 209
SWIDTH 741 0
DWIDTH 19 0
BBX 14 24 3 0
BITMAP
00e0
01c0
0380
0700
0000
e00c
f00c
f00c
f80c
fc0c
dc0c
de0c
cf0c
c70c
c78c
c38c
c1cc
c1ec
c0ec
c0fc
c07c
c03c
c03c
c01c
ENDCHAR
STARTCHAR Ncaron
ENCODING 210
SWIDTH 741 0
DWIDTH 19 0
BBX 14 24 3 0
BITMAP
1860
0cc0
0780
0780
0000
e00c
f00c
f00c
f80c
fc0c
dc0c
de0c
cf0c
c70c
c78c
c38c
c1cc
c1ec
c0ec
c0fc
c07c
c03c
c03c
c01c
ENDCHAR
STARTCHAR Oacute
ENCODING 211
SWIDTH 777 0
DWIDTH 20 0
BBX 18 24 1 0
BITMAP
003800
007000
00e000
01c000
000000
03f000
0ffc00
1e1e00
380700
700380
700380
e001c0
e001c0
e001c0
e001c0
e001c0
e001c0
e001c0
700380
700380
380700
1c0e00
0ffc00
03f000
ENDCHAR
STARTCHAR Ocircumflex
ENCODING 212
SWIDTH 777 0
DWIDTH 20 0
BBX 18 24 1 0
BITMAP
01e000
01e000
033000
061800
000000
03f000
0ffc00
1e1e00
380700
700380
700380
e001c0
e001c0
e001c0
e001c0
e001c0
e001c0
e001c0
700380
700380
380700
1c0e00
0ffc00
03f000
ENDCHAR
STARTCHAR Odoubleacute
ENCODING 213
SWIDTH 777 0
DWIDTH 20 0
BBX 18 24 1 0
BITMAP
006c00
00d800
01b000
036000
000000
03f000
0ffc00
1e1e00
380700
700380
700380
e001c0
e001c0
e001c0
e001c0
e001c0
e001c0
e001c0
700380
700380
380700
1c0e00
0ffc00
03f000
ENDCHAR
STARTCHAR Odiaeresis
ENCODING 214
SWIDTH 777 0
DWIDTH 20 0
BBX 18 22 1 0
BITMAP
063000
063000
000000
03f000
0ffc00
1e1e00
380700
700380
700380
e001c0
e001c0
e001c0
e001c0
e001c0
e001c0
e001c0
700380
700380
380700
1c0e00
0ffc00
03f000
ENDCHAR
STARTCHAR multiply
ENCODING 215
SWIDTH 633 0
DWIDTH 16 0
BBX 15 16 1 0
BITMAP
4004
e00e
701c
3838
1c70
0ee0
06c0
0380
0380
06c0
0ee0
1c70
3838
701c
e00e
4004
ENDCHAR
STARTCHAR Rcaron
ENCODING 216
SWIDTH 633 0
DWIDTH 16 0
BBX 13 24 3 0
BITMAP
30c0
1980
0f00
0f00
0000
ff00
ffc0
e1e0
e0e0
e0e0
e0e0
e0e0
e1c0
e380
ff00
ff00
e700
e380
e3c0
e1c0
e1e0
e0f0
e070
e078
ENDCHAR
STARTCHAR Uring
ENCODING 217
SWIDTH 693 0
DWIDTH 18 0
BBX 13 24 3 0
BITMAP
0300
0480
0480
0300
0000
e018
e018
e018
e018
e018
e018
e018
e018
e018
e018
e018
e018
e018
e018
e018
7038
7870
3fe0
1fc0
ENDCHAR
STARTCHAR Uacute
ENCODING 218
SWIDTH 693 0
DWIDTH 18 0
BBX 13 24 3 0
BITMAP
01c0
0380
0700
0e00
0000
e018
e018
e018
e018
e018
e018
e018
e018
e018
e018
e018
e018
e018
e018
e018
7038
7870
3fe0
1fc0
ENDCHAR
STARTCHAR Udoubleacute
ENCODING 219
SWIDTH 693 0
DWIDTH 18 0
BBX 13 24 3 0
BITMAP
01b0
0360
06c0
0d80
0000
e018
e018
e018
e018
e018
e018
e018
e018
e018
e018
e018
e018
e018
e018
e018
7038
7870
3fe0
1fc0
ENDCHAR
STARTCHAR Udiaeresis
ENCODING 220
SWIDTH 693 0
DWIDTH 18 0
BBX 13 22 3 0
BITMAP
18c0
18c0
0000
e018
e018
e018
e018
e018
e018
e018
e018
e018
e018
e018
e018
e018
e018
e018
7038
7870
3fe0
1fc0
ENDCHAR
STARTCHAR Yacute
ENCODING 221
SWIDTH 623 0
DWIDTH 16 0
BBX 16 24 0 0
BITMAP
0070
00e0
01c0
0380
0000
e007
7006
780c
381c
3c18
1c30
1e30
0f60
07e0
07c0
0380
0380
0380
0380
0380
0380
0380
0380
0380
ENDCHAR
STARTCHAR Tcedilla
ENCODING 222
SWIDTH 633 0
DWIDTH 16 0
BBX 17 25 0 -6
BITMAP
ffff80
ffff80
01c000
01c000
01c000
01c000
01c000
01c000
01c000
01c000
01c000
01c000
01c000
01c000
01c000
01c000
01c000
01c000
01c000
00c000
008000
00e000
006000
006000
01c000
ENDCHAR
STARTCHAR ssharp
ENCODING 223
SWIDTH 598 0
DWIDTH 16 0
BBX 13 20 2 0
BITMAP
3f00
7f80
f3c0
e1c0
e1c0
e180
e300
e700
e600
e700
e780
e3c0
e1f0
e0f0
e038
e018
e018
e438
e7f0
e3e0
ENDCHAR
STARTCHAR racute
ENCODING 224
SWIDTH 409 0
DWIDTH 11 0
BBX 8 19 2 0
BITMAP
07
0e
1c
38
00
e7
ef
f8
f0
e0
e0
e0
e0
e0
e0
e0
e0
e0
e0
ENDCHAR
STARTCHAR aacute
ENCODING 225
SWIDTH 552 0
DWIDTH 14 0
BBX 12 19 2 0
BITMAP
0380
0700
0e00
1c00
0000
1f80
7fc0
41c0
01c0
01c0
01c0
1fc0
7fc0
f1c0
e1c0
e1c0
e3c0
7ef0
3c70
ENDCHAR
STARTCHAR acircumflex
ENCODING 226
SWIDTH 552 0
DWIDTH 14 0
BBX 12 19 2 0
BITMAP
0f00
0f00
1980
30c0
0000
1f80
7fc0
41c0
01c0
01c0
01c0
1fc0
7fc0
f1c0
e1c0
e1c0
e3c0
7ef0
3c70
ENDCHAR
STARTCHAR abreve
ENCODING 227
SWIDTH 552 0
DWIDTH 14 0
BBX 12 19 2 0
BITMAP
30c0
30c0
1f80
0f00
0000
1f80
7fc0
41c0
01c0
01c0
01c0
1fc0
7fc0
f1c0
e1c0
e1c0
e3c0
7ef0
3c70
ENDCHAR
STARTCHAR adiaeresis
ENCODING 228
SWIDTH 552 0
DWIDTH 14 0
BBX 12 17 2 0
BITMAP
3180
3180
0000
1f80
7fc0
41c0
01c0
01c0
01c0
1fc0
7fc0
f1c0
e1c0
e1c0
e3c0
7ef0
3c70
ENDCHAR
STARTCHAR lacute
ENCODING 229
SWIDTH 289 0
DWIDTH 8 0
BBX 6 24 2 0
BITMAP
1c
38
70
e0
00
e0
e0
e0
e0
e0
e0
e0
e0
e0
e0
e0
e0
e0
e0
e0
e0
e0
e0
e0
ENDCHAR
STARTCHAR cacute
ENCODING 230
SWIDTH 518 0
DWIDTH 13 0
BBX 11 19 1 0
BITMAP
01c0
0380
0700
0e00
0000
0fe0
3fe0
7820
7000
e000
e000
e000
e000
e000
e000
7000
7820
3fe0
0fc0
ENDCHAR
STARTCHAR ccedilla
ENCODING 231
SWIDTH 518 0
DWIDTH 13 0
BBX 11 19 1 -5
BITMAP
0fe0
3fe0
7820
7000
e000
e000
e000
e000
e000
e000
7000
7820
3fe0
0fc0
0400
0700
0300
0300
0e00
ENDCHAR
STARTCHAR ccaron
ENCODING 232
SWIDTH 518 0
DWIDTH 13 0
BBX 11 19 1 0
BITMAP
30c0
1980
0f00
0f00
0000
0fe0
3fe0
7820
7000
e000
e000
e000
e000
e000
e000
7000
7820
3fe0
0fc0
ENDCHAR
STARTCHAR eacute
ENCODING 233
SWIDTH 557 0
DWIDTH 14 0
BBX 12 19 1 0
BITMAP
01c0
0380
0700
0e00
0000
0f80
3fc0
70e0
7060
e070
e070
fff0
fff0
e000
e000
7000
7c10
1ff0
0fe0
ENDCHAR
STARTCHAR eogonek
ENCODING 234
SWIDTH 557 0
DWIDTH 14 0
BBX 12 18 1 -4
BITMAP
0f80
3fc0
70e0
7060
e070
e070
fff0
fff0
e000
e000
7000
7c10
1ff0
0fe0
0600
0c00
0c00
0700
ENDCHAR
STARTCHAR ediaeresis
ENCODING 235
SWIDTH 557 0
DWIDTH 14 0
BBX 12 17 1 0
BITMAP
18c0
18c0
0000
0f80
3fc0
70e0
7060
e070
e070
fff0
fff0
e000
e000
7000
7c10
1ff0
0fe0
ENDCHAR
STARTCHAR ecaron
ENCODING 236
SWIDTH 557 0
DWIDTH 14 0
BBX 12 19 1 0
BITMAP
30c0
1980
0f00
0f00
0000
0f80
3fc0
70e0
7060
e070
e070
fff0
fff0
e000
e000
7000
7c10
1ff0
0fe0
ENDCHAR
STARTCHAR iacute
ENCODING 237
SWIDTH 289 0
DWIDTH 8 0
BBX 6 19 3 0
BITMAP
1c
38
70
e0
00
70
70
70
70
70
70
70
70
70
70
70
70
70
70
ENDCHAR
STARTCHAR icircumflex
ENCODING 238
SWIDTH 289 0
DWIDTH 8 0
BBX 8 19 4 0
BITMAP
3c
3c
66
c3
00
38
38
38
38
38
38
38
38
38
38
38
38
38
38
ENDCHAR
STARTCHAR dcaron
ENCODING 239
SWIDTH 757 0
DWIDTH 20 0
BBX 16 21 2 0
BITMAP
0007
0007
0077
0073
0073
0073
0076
1e70
3ff0
78f0
7070
e070
e070
e070
e070
e070
e070
f0f0
71f0
7f70
1e70
ENDCHAR
STARTCHAR dstroke
ENCODING 240
SWIDTH 720 0
DWIDTH 19 0
BBX 15 19 2 0
BITMAP
0070
0070
03fe
03fe
0070
1e70
3ff0
78f0
7070
e070
e070
e070
e070
e070
e070
f0f0
71f0
7f70
1e70
ENDCHAR
STARTCHAR nacute
ENCODING 241
SWIDTH 620 0
DWIDTH 16 0
BBX 11 19 3 0
BITMAP
01c0
0380
0700
0e00
0000
e780
efc0
f8e0
f0e0
e0e0
e0e0
e0e0
e0e0
e0e0
e0e0
e0e0
e0e0
e0e0
e0e0
ENDCHAR
STARTCHAR ncaron
ENCODING 242
SWIDTH 620 0
DWIDTH 16 0
BBX 11 19 3 0
BITMAP
30c0
1980
0f00
0f00
0000
e780
efc0
f8e0
f0e0
e0e0
e0e0
e0e0
e0e0
e0e0
e0e0
e0e0
e0e0
e0e0
e0e0
ENDCHAR
STARTCHAR oacute
ENCODING 243
SWIDTH 614 0
DWIDTH 16 0
BBX 13 19 1 0
BITMAP
01c0
0380
0700
0e00
0000
0f80
3fe0
78f0
7070
e038
e038
e038
e038
e038
e038
7070
78f0
3fe0
0f80
ENDCHAR
STARTCHAR ocircumflex
ENCODING 244
SWIDTH 614 0
DWIDTH 16 0
BBX 13 19 1 0
BITMAP
0780
0780
0cc0
1860
0000
0f80
3fe0
78f0
7070
e038
e038
e038
e038
e038
e038
7070
78f0
3fe0
0f80
ENDCHAR
STARTCHAR odoubleacute
ENCODING 245
SWIDTH 614 0
DWIDTH 16 0
BBX 13 19 1 0
BITMAP
01b0
0360
06c0
0d80
0000
0f80
3fe0
78f0
7070
e038
e038
e038
e038
e038
e038
7070
78f0
3fe0
0f80
ENDCHAR
STARTCHAR odiaeresis
ENCODING 246
SWIDTH 614 0
DWIDTH 16 0
BBX 13 17 1 0
BITMAP
18c0
18c0
0000
0f80
3fe0
78f0
7070
e038
e038
e038
e038
e038
e038
7070
78f0
3fe0
0f80
ENDCHAR
STARTCHAR division
ENCODING 247
SWIDTH 633 0
DWIDTH 16 0
BBX 15 14 1 0
BITMAP
0380
0380
0380
0000
0000
0000
fffe
fffe
0000
0000
0000
0380
0380
0380
ENDCHAR
STARTCHAR rcaron
ENCODING 248
SWIDTH 409 0
DWIDTH 11 0
BBX 8 19 2 0
BITMAP
c3
66
3c
3c
00
e7
ef
f8
f0
e0
e0
e0
e0
e0
e0
e0
e0
e0
e0
ENDCHAR
STARTCHAR uring
ENCODING 249
SWIDTH 620 0
DWIDTH 16 0
BBX 11 19 2 0
BITMAP
0600
0900
0900
0600
0000
e0e0
e0e0
e0e0
e0e0
e0e0
e0e0
e0e0
e0e0
e0e0
e0e0
e1e0
e3e0
7ee0
3ce0
ENDCHAR
STARTCHAR uacute
ENCODING 250
SWIDTH 620 0
DWIDTH 16 0
BBX 11 19 2 0
BITMAP
0380
0700
0e00
1c00
0000
e0e0
e0e0
e0e0
e0e0
e0e0
e0e0
e0e0
e0e0
e0e0
e0e0
e1e0
e3e0
7ee0
3ce0
ENDCHAR
STARTCHAR udoubleacute
ENCODING 251
SWIDTH 620 0
DWIDTH 16 0
BBX 11 19 2 0
BITMAP
0360
06c0
0d80
1b00
0000
e0e0
e0e0
e0e0
e0e0
e0e0
e0e0
e0e0
e0e0
e0e0
e0e0
e1e0
e3e0
7ee0
3ce0
ENDCHAR
STARTCHAR udiaeresis
ENCODING 252
SWIDTH 620 0
DWIDTH 16 0
BBX 11 17 2 0
BITMAP
3180
3180
0000
e0e0
e0e0
e0e0
e0e0
e0e0
e0e0
e0e0
e0e0
e0e0
e0e0
e1e0
e3e0
7ee0
3ce0
ENDCHAR
STARTCHAR yacute
ENCODING 253
SWIDTH 568 0
DWIDTH 14 0
BBX 13 24 0 -5
BITMAP
01c0
0380
0700
0e00
0000
e018
f030
7030
7070
7860
3860
38c0
1cc0
1dc0
1d80
0f80
0f00
0f00
0700
0600
0600
0e00
0c00
1c00
ENDCHAR
STARTCHAR tcedilla
ENCODING 254
SWIDTH 374 0
DWIDTH 10 0
BBX 9 23 0 -6
BITMAP
3800
3800
3800
ff80
ff80
3800
3800
3800
3800
3800
3800
3800
3800
3800
3c00
1f80
0f80
0c00
0800
0e00
0600
0600
1c00
ENDCHAR
STARTCHAR abovedot
ENCODING 255
SWIDTH 614 0
DWIDTH 16 0
BBX 2 3 7 16
BITMAP
c0
c0
c0
ENDCHAR
ENDFONT
